<svg width="80" height="80" viewBox="0 0 80 80" fill="none" xmlns="http://www.w3.org/2000/svg">
<rect x="3" y="3" width="74" height="74" fill="black"/>
<path d="M33.174 71V68.6186H30.7329V71H33.174ZM21 59V71H23.4411V66.2062H28.3232V68.6186H30.7329V66.2062H33.174V59H21ZM30.7329 63.7938H23.4411V61.3814H30.7329V63.7938Z" fill="white"/>
<path d="M35.6087 59V71H47.7826V68.6186H38.0497V66.2062H42.9005V63.7938H38.0497V61.3814H47.7826V59H35.6087Z" fill="white"/>
<path d="M50.2173 59V71H62.3913V68.6186H52.6584V61.3814H62.3913V59H50.2173Z" fill="white"/>
<path d="M64.826 59V61.3814H69.7081V71H72.1492V61.3814H77V59H64.826Z" fill="white"/>
<path fill-rule="evenodd" clip-rule="evenodd" d="M80 0H0V3V80H3H77H80V3V0ZM77 3L3 3V77H77V3Z" fill="white"/>
</svg>
