<svg width="233" height="66" viewBox="0 0 233 66" fill="none" xmlns="http://www.w3.org/2000/svg">
<path d="M5.048 4.325C5.888 4.325 6.557 4.529 7.055 4.937C7.559 5.345 7.922 5.921 8.144 6.665C8.366 7.403 8.477 8.267 8.477 9.257C8.477 10.211 8.342 11.063 8.072 11.813C7.808 12.557 7.406 13.142 6.866 13.568C6.326 13.994 5.645 14.207 4.823 14.207C3.785 14.207 2.951 13.841 2.321 13.109V17.627L0.809 17.816V4.523H2.096L2.222 5.846C2.57 5.36 2.984 4.985 3.464 4.721C3.95 4.457 4.478 4.325 5.048 4.325ZM4.688 5.54C4.166 5.54 3.704 5.699 3.302 6.017C2.906 6.329 2.579 6.677 2.321 7.061V11.759C2.567 12.125 2.876 12.416 3.248 12.632C3.626 12.842 4.04 12.947 4.49 12.947C5.276 12.947 5.867 12.647 6.263 12.047C6.659 11.447 6.857 10.514 6.857 9.248C6.857 8.42 6.779 7.733 6.623 7.187C6.467 6.635 6.23 6.224 5.912 5.954C5.594 5.678 5.186 5.54 4.688 5.54ZM18.388 11.93C18.388 12.308 18.451 12.584 18.577 12.758C18.703 12.932 18.898 13.061 19.162 13.145L18.793 14.207C18.385 14.153 18.028 14.024 17.722 13.82C17.416 13.61 17.194 13.295 17.056 12.875C16.714 13.313 16.288 13.646 15.778 13.874C15.268 14.096 14.704 14.207 14.086 14.207C13.138 14.207 12.391 13.94 11.845 13.406C11.299 12.872 11.026 12.164 11.026 11.282C11.026 10.304 11.407 9.554 12.169 9.032C12.931 8.51 14.032 8.249 15.472 8.249H16.867V7.457C16.867 6.773 16.666 6.29 16.264 6.008C15.868 5.72 15.316 5.576 14.608 5.576C14.296 5.576 13.93 5.615 13.51 5.693C13.09 5.765 12.634 5.888 12.142 6.062L11.746 4.919C12.328 4.703 12.874 4.55 13.384 4.46C13.894 4.37 14.38 4.325 14.842 4.325C16.024 4.325 16.909 4.601 17.497 5.153C18.091 5.699 18.388 6.443 18.388 7.385V11.93ZM14.473 13.055C14.941 13.055 15.388 12.938 15.814 12.704C16.24 12.464 16.591 12.134 16.867 11.714V9.275H15.499C14.455 9.275 13.717 9.455 13.285 9.815C12.859 10.175 12.646 10.658 12.646 11.264C12.646 11.852 12.796 12.299 13.096 12.605C13.402 12.905 13.861 13.055 14.473 13.055ZM26.6789 12.902C27.1529 12.902 27.5939 12.824 28.0019 12.668C28.4159 12.512 28.7969 12.314 29.1449 12.074L29.8829 13.064C29.4689 13.418 28.9709 13.697 28.3889 13.901C27.8069 14.105 27.2369 14.207 26.6789 14.207C25.7369 14.207 24.9329 14.006 24.2669 13.604C23.6069 13.196 23.1029 12.626 22.7549 11.894C22.4069 11.156 22.2329 10.292 22.2329 9.302C22.2329 8.354 22.4069 7.505 22.7549 6.755C23.1089 5.999 23.6159 5.405 24.2759 4.973C24.9419 4.541 25.7489 4.325 26.6969 4.325C27.3029 4.325 27.8699 4.418 28.3979 4.604C28.9319 4.784 29.4209 5.057 29.8649 5.423L29.1269 6.431C28.7249 6.149 28.3199 5.939 27.9119 5.801C27.5099 5.657 27.0989 5.585 26.6789 5.585C25.8629 5.585 25.1909 5.891 24.6629 6.503C24.1349 7.115 23.8709 8.048 23.8709 9.302C23.8709 10.142 23.9909 10.829 24.2309 11.363C24.4769 11.891 24.8099 12.281 25.2299 12.533C25.6559 12.779 26.1389 12.902 26.6789 12.902ZM41.1259 4.523L36.8599 8.789L41.6209 14H39.6319L34.9699 8.825L39.1639 4.523H41.1259ZM34.7989 0.518V14H33.2869V0.706999L34.7989 0.518ZM50.7669 11.93C50.7669 12.308 50.8299 12.584 50.9559 12.758C51.0819 12.932 51.2769 13.061 51.5409 13.145L51.1719 14.207C50.7639 14.153 50.4069 14.024 50.1009 13.82C49.7949 13.61 49.5729 13.295 49.4349 12.875C49.0929 13.313 48.6669 13.646 48.1569 13.874C47.6469 14.096 47.0829 14.207 46.4649 14.207C45.5169 14.207 44.7699 13.94 44.2239 13.406C43.6779 12.872 43.4049 12.164 43.4049 11.282C43.4049 10.304 43.7859 9.554 44.5479 9.032C45.3099 8.51 46.4109 8.249 47.8509 8.249H49.2459V7.457C49.2459 6.773 49.0449 6.29 48.6429 6.008C48.2469 5.72 47.6949 5.576 46.9869 5.576C46.6749 5.576 46.3089 5.615 45.8889 5.693C45.4689 5.765 45.0129 5.888 44.5209 6.062L44.1249 4.919C44.7069 4.703 45.2529 4.55 45.7629 4.46C46.2729 4.37 46.7589 4.325 47.2209 4.325C48.4029 4.325 49.2879 4.601 49.8759 5.153C50.4699 5.699 50.7669 6.443 50.7669 7.385V11.93ZM46.8519 13.055C47.3199 13.055 47.7669 12.938 48.1929 12.704C48.6189 12.464 48.9699 12.134 49.2459 11.714V9.275H47.8779C46.8339 9.275 46.0959 9.455 45.6639 9.815C45.2379 10.175 45.0249 10.658 45.0249 11.264C45.0249 11.852 45.1749 12.299 45.4749 12.605C45.7809 12.905 46.2399 13.055 46.8519 13.055ZM62.4778 3.515L62.9458 4.937C62.5438 5.063 62.1148 5.141 61.6588 5.171C61.2028 5.201 60.7078 5.216 60.1738 5.216C60.7198 5.468 61.1308 5.795 61.4068 6.197C61.6828 6.593 61.8208 7.061 61.8208 7.601C61.8208 8.225 61.6798 8.78 61.3978 9.266C61.1158 9.752 60.7078 10.133 60.1738 10.409C59.6458 10.685 59.0068 10.823 58.2568 10.823C57.9388 10.823 57.6718 10.808 57.4558 10.778C57.2458 10.748 57.0418 10.703 56.8438 10.643C56.6998 10.739 56.5798 10.871 56.4838 11.039C56.3938 11.207 56.3488 11.381 56.3488 11.561C56.3488 11.789 56.4388 11.978 56.6188 12.128C56.7988 12.278 57.1318 12.353 57.6178 12.353H59.3278C59.9638 12.353 60.5338 12.467 61.0378 12.695C61.5478 12.923 61.9468 13.229 62.2348 13.613C62.5288 13.997 62.6758 14.435 62.6758 14.927C62.6758 15.857 62.2798 16.571 61.4878 17.069C60.7018 17.567 59.5888 17.816 58.1488 17.816C57.1408 17.816 56.3458 17.711 55.7638 17.501C55.1818 17.297 54.7648 16.982 54.5128 16.556C54.2668 16.136 54.1438 15.605 54.1438 14.963H55.5118C55.5118 15.329 55.5838 15.632 55.7278 15.872C55.8718 16.112 56.1328 16.289 56.5108 16.403C56.8888 16.523 57.4318 16.583 58.1398 16.583C58.8358 16.583 59.4028 16.523 59.8408 16.403C60.2848 16.289 60.6118 16.115 60.8218 15.881C61.0378 15.653 61.1458 15.368 61.1458 15.026C61.1458 14.576 60.9418 14.237 60.5338 14.009C60.1258 13.781 59.6158 13.667 59.0038 13.667H57.3118C56.4958 13.667 55.8928 13.487 55.5028 13.127C55.1188 12.767 54.9268 12.353 54.9268 11.885C54.9268 11.579 55.0138 11.282 55.1878 10.994C55.3678 10.706 55.6288 10.451 55.9708 10.229C55.4248 9.941 55.0228 9.584 54.7648 9.158C54.5068 8.732 54.3778 8.216 54.3778 7.61C54.3778 6.968 54.5368 6.401 54.8548 5.909C55.1728 5.411 55.6168 5.021 56.1868 4.739C56.7568 4.457 57.4138 4.316 58.1578 4.316C58.9558 4.31 59.6038 4.277 60.1018 4.217C60.5998 4.151 61.0258 4.058 61.3798 3.938C61.7398 3.818 62.1058 3.677 62.4778 3.515ZM58.1578 5.423C57.3958 5.423 56.8318 5.63 56.4658 6.044C56.1058 6.452 55.9258 6.974 55.9258 7.61C55.9258 8.252 56.1118 8.78 56.4838 9.194C56.8558 9.608 57.4258 9.815 58.1938 9.815C58.8658 9.815 59.3758 9.62 59.7238 9.23C60.0778 8.84 60.2548 8.297 60.2548 7.601C60.2548 6.887 60.0778 6.347 59.7238 5.981C59.3758 5.609 58.8538 5.423 58.1578 5.423ZM66.7548 9.797C66.7848 10.529 66.9258 11.129 67.1778 11.597C67.4298 12.059 67.7628 12.401 68.1768 12.623C68.5908 12.839 69.0408 12.947 69.5268 12.947C70.0128 12.947 70.4508 12.875 70.8408 12.731C71.2368 12.587 71.6418 12.374 72.0558 12.092L72.7668 13.091C72.3228 13.439 71.8158 13.712 71.2458 13.91C70.6818 14.108 70.1028 14.207 69.5088 14.207C68.5908 14.207 67.8078 14 67.1598 13.586C66.5118 13.172 66.0168 12.596 65.6748 11.858C65.3388 11.114 65.1708 10.253 65.1708 9.275C65.1708 8.315 65.3418 7.463 65.6838 6.719C66.0258 5.975 66.5058 5.39 67.1238 4.964C67.7418 4.538 68.4708 4.325 69.3108 4.325C70.1088 4.325 70.7958 4.514 71.3718 4.892C71.9478 5.264 72.3888 5.798 72.6948 6.494C73.0068 7.184 73.1628 8.009 73.1628 8.969C73.1628 9.131 73.1598 9.284 73.1538 9.428C73.1478 9.566 73.1388 9.689 73.1268 9.797H66.7548ZM69.3288 5.567C68.6268 5.567 68.0388 5.816 67.5648 6.314C67.0968 6.812 66.8298 7.583 66.7638 8.627H71.7048C71.6868 7.613 71.4648 6.851 71.0388 6.341C70.6128 5.825 70.0428 5.567 69.3288 5.567ZM142.63 4.523V11.237C142.63 11.861 142.759 12.311 143.017 12.587C143.275 12.863 143.677 13.001 144.223 13.001C144.745 13.001 145.237 12.854 145.699 12.56C146.167 12.26 146.53 11.906 146.788 11.498V4.523H148.3V14H147.013L146.887 12.722C146.515 13.202 146.056 13.571 145.51 13.829C144.964 14.081 144.412 14.207 143.854 14.207C142.936 14.207 142.249 13.964 141.793 13.478C141.343 12.986 141.118 12.299 141.118 11.417V4.523H142.63ZM155.133 12.956C155.859 12.956 156.432 12.821 156.852 12.551C157.278 12.275 157.491 11.909 157.491 11.453C157.491 11.165 157.437 10.916 157.329 10.706C157.227 10.496 157.014 10.307 156.69 10.139C156.366 9.971 155.868 9.803 155.196 9.635C154.542 9.473 153.972 9.287 153.486 9.077C153.006 8.861 152.631 8.582 152.361 8.24C152.097 7.898 151.965 7.454 151.965 6.908C151.965 6.374 152.115 5.915 152.415 5.531C152.721 5.141 153.144 4.844 153.684 4.64C154.224 4.43 154.851 4.325 155.565 4.325C156.327 4.325 156.99 4.427 157.554 4.631C158.124 4.829 158.607 5.075 159.003 5.369L158.337 6.395C157.977 6.149 157.581 5.948 157.149 5.792C156.717 5.63 156.195 5.549 155.583 5.549C154.839 5.549 154.311 5.666 153.999 5.9C153.687 6.128 153.531 6.425 153.531 6.791C153.531 7.067 153.606 7.298 153.756 7.484C153.912 7.664 154.173 7.829 154.539 7.979C154.905 8.123 155.409 8.282 156.051 8.456C156.669 8.618 157.206 8.813 157.662 9.041C158.124 9.269 158.484 9.569 158.742 9.941C159 10.313 159.129 10.793 159.129 11.381C159.129 12.053 158.937 12.599 158.553 13.019C158.169 13.433 157.671 13.736 157.059 13.928C156.453 14.114 155.811 14.207 155.133 14.207C154.275 14.207 153.543 14.084 152.937 13.838C152.337 13.586 151.833 13.283 151.425 12.929L152.289 11.93C152.661 12.236 153.087 12.485 153.567 12.677C154.053 12.863 154.575 12.956 155.133 12.956ZM163.892 9.797C163.922 10.529 164.063 11.129 164.315 11.597C164.567 12.059 164.9 12.401 165.314 12.623C165.728 12.839 166.178 12.947 166.664 12.947C167.15 12.947 167.588 12.875 167.978 12.731C168.374 12.587 168.779 12.374 169.193 12.092L169.904 13.091C169.46 13.439 168.953 13.712 168.383 13.91C167.819 14.108 167.24 14.207 166.646 14.207C165.728 14.207 164.945 14 164.297 13.586C163.649 13.172 163.154 12.596 162.812 11.858C162.476 11.114 162.308 10.253 162.308 9.275C162.308 8.315 162.479 7.463 162.821 6.719C163.163 5.975 163.643 5.39 164.261 4.964C164.879 4.538 165.608 4.325 166.448 4.325C167.246 4.325 167.933 4.514 168.509 4.892C169.085 5.264 169.526 5.798 169.832 6.494C170.144 7.184 170.3 8.009 170.3 8.969C170.3 9.131 170.297 9.284 170.291 9.428C170.285 9.566 170.276 9.689 170.264 9.797H163.892ZM166.466 5.567C165.764 5.567 165.176 5.816 164.702 6.314C164.234 6.812 163.967 7.583 163.901 8.627H168.842C168.824 7.613 168.602 6.851 168.176 6.341C167.75 5.825 167.18 5.567 166.466 5.567Z" fill="#E85151"/>
<path d="M123.105 11.021C123.525 11.021 123.873 11.165 124.149 11.453C124.431 11.735 124.572 12.071 124.572 12.461C124.572 12.683 124.545 12.905 124.491 13.127C124.443 13.349 124.35 13.604 124.212 13.892L122.754 17.24H121.386L122.25 13.667C121.854 13.391 121.656 12.992 121.656 12.47C121.656 12.068 121.794 11.726 122.07 11.444C122.352 11.162 122.697 11.021 123.105 11.021ZM123.105 4.802C123.525 4.802 123.873 4.943 124.149 5.225C124.431 5.507 124.572 5.849 124.572 6.251C124.572 6.647 124.431 6.992 124.149 7.286C123.873 7.574 123.525 7.718 123.105 7.718C122.697 7.718 122.352 7.574 122.07 7.286C121.794 6.992 121.656 6.647 121.656 6.251C121.656 5.975 121.719 5.729 121.845 5.513C121.971 5.297 122.145 5.126 122.367 5C122.589 4.868 122.835 4.802 123.105 4.802ZM220.241 11.021C220.661 11.021 221.009 11.165 221.285 11.453C221.567 11.735 221.708 12.071 221.708 12.461C221.708 12.683 221.681 12.905 221.627 13.127C221.579 13.349 221.486 13.604 221.348 13.892L219.89 17.24H218.522L219.386 13.667C218.99 13.391 218.792 12.992 218.792 12.47C218.792 12.068 218.93 11.726 219.206 11.444C219.488 11.162 219.833 11.021 220.241 11.021ZM220.241 4.802C220.661 4.802 221.009 4.943 221.285 5.225C221.567 5.507 221.708 5.849 221.708 6.251C221.708 6.647 221.567 6.992 221.285 7.286C221.009 7.574 220.661 7.718 220.241 7.718C219.833 7.718 219.488 7.574 219.206 7.286C218.93 6.992 218.792 6.647 218.792 6.251C218.792 5.975 218.855 5.729 218.981 5.513C219.107 5.297 219.281 5.126 219.503 5C219.725 4.868 219.971 4.802 220.241 4.802ZM7.352 53.432C7.352 52.79 7.226 52.283 6.974 51.911C6.722 51.533 6.377 51.263 5.939 51.101C5.501 50.933 5 50.849 4.436 50.849H2.645V56.141H4.373C4.955 56.141 5.468 56.063 5.912 55.907C6.356 55.745 6.707 55.469 6.965 55.079C7.223 54.683 7.352 54.134 7.352 53.432ZM9.026 53.414C9.026 54.38 8.819 55.154 8.405 55.736C7.997 56.318 7.433 56.741 6.713 57.005C5.993 57.269 5.165 57.401 4.229 57.401H2.645V62H1.079V49.607H4.247C5.723 49.607 6.887 49.919 7.739 50.543C8.597 51.161 9.026 52.118 9.026 53.414ZM11.692 62V60.839H13.168V53.684H11.692V52.523H14.32L14.599 54.764C14.965 53.984 15.409 53.381 15.931 52.955C16.453 52.529 17.143 52.316 18.001 52.316C18.265 52.316 18.499 52.337 18.703 52.379C18.913 52.415 19.126 52.463 19.342 52.523L18.901 53.873C18.703 53.819 18.523 53.78 18.361 53.756C18.199 53.726 18.013 53.711 17.803 53.711C17.077 53.711 16.453 53.969 15.931 54.485C15.409 55.001 14.992 55.781 14.68 56.825V60.839H16.606V62H11.692ZM17.884 55.727V53.666L18.037 52.523H19.342L19.126 55.727H17.884ZM27.1919 52.523V60.803H29.8649V62H22.7549V60.803H25.6799V53.72H22.8449V52.523H27.1919ZM25.9859 48.086C26.3219 48.086 26.5889 48.188 26.7869 48.392C26.9909 48.596 27.0929 48.845 27.0929 49.139C27.0929 49.445 26.9909 49.703 26.7869 49.913C26.5889 50.117 26.3219 50.219 25.9859 50.219C25.6679 50.219 25.4069 50.117 25.2029 49.913C24.9989 49.703 24.8969 49.445 24.8969 49.139C24.8969 48.845 24.9989 48.596 25.2029 48.392C25.4069 48.188 25.6679 48.086 25.9859 48.086ZM33.1879 62V52.523H34.4749L34.5919 53.837C34.9759 53.351 35.4559 52.979 36.0319 52.721C36.6139 52.457 37.1779 52.325 37.7239 52.325C38.6539 52.325 39.3289 52.571 39.7489 53.063C40.1749 53.555 40.3879 54.239 40.3879 55.115V62H38.8759V56.231C38.8759 55.583 38.8399 55.061 38.7679 54.665C38.6959 54.263 38.5459 53.972 38.3179 53.792C38.0899 53.606 37.7359 53.513 37.2559 53.513C36.8839 53.513 36.5329 53.594 36.2029 53.756C35.8789 53.918 35.5879 54.122 35.3299 54.368C35.0779 54.608 34.8679 54.851 34.6999 55.097V62H33.1879ZM51.5049 61.523C51.1809 61.739 50.7879 61.907 50.3259 62.027C49.8639 62.147 49.4109 62.207 48.9669 62.207C47.9469 62.207 47.1609 61.94 46.6089 61.406C46.0569 60.872 45.7809 60.185 45.7809 59.345V53.693H43.6029V52.523H45.7809V50.372L47.2929 50.192V52.523H50.5689L50.3889 53.693H47.2929V59.327C47.2929 59.855 47.4309 60.257 47.7069 60.533C47.9889 60.809 48.4539 60.947 49.1019 60.947C49.4559 60.947 49.7829 60.905 50.0829 60.821C50.3829 60.737 50.6619 60.629 50.9199 60.497L51.5049 61.523ZM56.7898 55.7C56.7898 56.636 56.8708 57.476 57.0328 58.22C57.1948 58.958 57.4348 59.636 57.7528 60.254C58.0708 60.866 58.4698 61.448 58.9498 62C59.4358 62.558 59.9998 63.122 60.6418 63.692L59.8498 64.52C58.8778 63.722 58.0438 62.906 57.3478 62.072C56.6578 61.238 56.1268 60.308 55.7548 59.282C55.3888 58.256 55.2058 57.062 55.2058 55.7C55.2058 54.332 55.3888 53.135 55.7548 52.109C56.1268 51.083 56.6578 50.153 57.3478 49.319C58.0438 48.485 58.8778 47.672 59.8498 46.88L60.6418 47.708C59.9938 48.284 59.4268 48.851 58.9408 49.409C58.4608 49.961 58.0618 50.543 57.7438 51.155C57.4258 51.761 57.1858 52.436 57.0238 53.18C56.8678 53.918 56.7898 54.758 56.7898 55.7ZM221.834 55.7C221.834 54.758 221.753 53.918 221.591 53.18C221.435 52.436 221.198 51.761 220.88 51.155C220.562 50.543 220.16 49.961 219.674 49.409C219.194 48.851 218.63 48.284 217.982 47.708L218.774 46.88C219.752 47.672 220.586 48.485 221.276 49.319C221.966 50.153 222.494 51.083 222.86 52.109C223.232 53.135 223.418 54.332 223.418 55.7C223.418 57.062 223.232 58.256 222.86 59.282C222.494 60.308 221.966 61.238 221.276 62.072C220.586 62.906 219.752 63.722 218.774 64.52L217.982 63.692C218.624 63.122 219.185 62.558 219.665 62C220.151 61.448 220.553 60.866 220.871 60.254C221.189 59.636 221.429 58.958 221.591 58.22C221.753 57.476 221.834 56.636 221.834 55.7ZM231.034 59.021C231.454 59.021 231.802 59.165 232.078 59.453C232.36 59.735 232.501 60.071 232.501 60.461C232.501 60.683 232.474 60.905 232.42 61.127C232.372 61.349 232.279 61.604 232.141 61.892L230.683 65.24H229.315L230.179 61.667C229.783 61.391 229.585 60.992 229.585 60.47C229.585 60.068 229.723 59.726 229.999 59.444C230.281 59.162 230.626 59.021 231.034 59.021ZM231.034 52.802C231.454 52.802 231.802 52.943 232.078 53.225C232.36 53.507 232.501 53.849 232.501 54.251C232.501 54.647 232.36 54.992 232.078 55.286C231.802 55.574 231.454 55.718 231.034 55.718C230.626 55.718 230.281 55.574 229.999 55.286C229.723 54.992 229.585 54.647 229.585 54.251C229.585 53.975 229.648 53.729 229.774 53.513C229.9 53.297 230.074 53.126 230.296 53C230.518 52.868 230.764 52.802 231.034 52.802Z" fill="white"/>
<path d="M90.3748 12.956C91.1008 12.956 91.6738 12.821 92.0938 12.551C92.5198 12.275 92.7328 11.909 92.7328 11.453C92.7328 11.165 92.6788 10.916 92.5708 10.706C92.4688 10.496 92.2558 10.307 91.9318 10.139C91.6078 9.971 91.1098 9.803 90.4378 9.635C89.7838 9.473 89.2138 9.287 88.7278 9.077C88.2478 8.861 87.8728 8.582 87.6028 8.24C87.3388 7.898 87.2068 7.454 87.2068 6.908C87.2068 6.374 87.3568 5.915 87.6567 5.531C87.9628 5.141 88.3858 4.844 88.9258 4.64C89.4658 4.43 90.0928 4.325 90.8068 4.325C91.5688 4.325 92.2318 4.427 92.7958 4.631C93.3658 4.829 93.8488 5.075 94.2448 5.369L93.5788 6.395C93.2188 6.149 92.8228 5.948 92.3908 5.792C91.9588 5.63 91.4368 5.549 90.8248 5.549C90.0808 5.549 89.5528 5.666 89.2408 5.9C88.9288 6.128 88.7728 6.425 88.7728 6.791C88.7728 7.067 88.8478 7.298 88.9978 7.484C89.1538 7.664 89.4148 7.829 89.7808 7.979C90.1468 8.123 90.6508 8.282 91.2928 8.456C91.9108 8.618 92.4478 8.813 92.9038 9.041C93.3658 9.269 93.7258 9.569 93.9838 9.941C94.2418 10.313 94.3708 10.793 94.3708 11.381C94.3708 12.053 94.1788 12.599 93.7948 13.019C93.4108 13.433 92.9128 13.736 92.3008 13.928C91.6948 14.114 91.0528 14.207 90.3748 14.207C89.5168 14.207 88.7848 14.084 88.1788 13.838C87.5788 13.586 87.0748 13.283 86.6667 12.929L87.5308 11.93C87.9028 12.236 88.3288 12.485 88.8088 12.677C89.2948 12.863 89.8168 12.956 90.3748 12.956ZM105.83 4.523L102.5 14.063C102.278 14.705 101.996 15.293 101.654 15.827C101.318 16.361 100.877 16.802 100.331 17.15C99.7907 17.504 99.1037 17.723 98.2697 17.807L98.0357 16.601C98.6897 16.493 99.2057 16.328 99.5837 16.106C99.9617 15.884 100.259 15.599 100.475 15.251C100.697 14.903 100.892 14.486 101.06 14H100.556L97.2437 4.523H98.8637L101.582 12.848L104.264 4.523H105.83ZM111.961 12.956C112.687 12.956 113.26 12.821 113.68 12.551C114.106 12.275 114.319 11.909 114.319 11.453C114.319 11.165 114.265 10.916 114.157 10.706C114.055 10.496 113.842 10.307 113.518 10.139C113.194 9.971 112.696 9.803 112.024 9.635C111.37 9.473 110.8 9.287 110.314 9.077C109.834 8.861 109.459 8.582 109.189 8.24C108.925 7.898 108.793 7.454 108.793 6.908C108.793 6.374 108.943 5.915 109.243 5.531C109.549 5.141 109.972 4.844 110.512 4.64C111.052 4.43 111.679 4.325 112.393 4.325C113.155 4.325 113.818 4.427 114.382 4.631C114.952 4.829 115.435 5.075 115.831 5.369L115.165 6.395C114.805 6.149 114.409 5.948 113.977 5.792C113.545 5.63 113.023 5.549 112.411 5.549C111.667 5.549 111.139 5.666 110.827 5.9C110.515 6.128 110.359 6.425 110.359 6.791C110.359 7.067 110.434 7.298 110.584 7.484C110.74 7.664 111.001 7.829 111.367 7.979C111.733 8.123 112.237 8.282 112.879 8.456C113.497 8.618 114.034 8.813 114.49 9.041C114.952 9.269 115.312 9.569 115.57 9.941C115.828 10.313 115.957 10.793 115.957 11.381C115.957 12.053 115.765 12.599 115.381 13.019C114.997 13.433 114.499 13.736 113.887 13.928C113.281 14.114 112.639 14.207 111.961 14.207C111.103 14.207 110.371 14.084 109.765 13.838C109.165 13.586 108.661 13.283 108.253 12.929L109.117 11.93C109.489 12.236 109.915 12.485 110.395 12.677C110.881 12.863 111.403 12.956 111.961 12.956ZM187.511 12.956C188.237 12.956 188.81 12.821 189.23 12.551C189.656 12.275 189.869 11.909 189.869 11.453C189.869 11.165 189.815 10.916 189.707 10.706C189.605 10.496 189.392 10.307 189.068 10.139C188.744 9.971 188.246 9.803 187.574 9.635C186.92 9.473 186.35 9.287 185.864 9.077C185.384 8.861 185.009 8.582 184.739 8.24C184.475 7.898 184.343 7.454 184.343 6.908C184.343 6.374 184.493 5.915 184.793 5.531C185.099 5.141 185.522 4.844 186.062 4.64C186.602 4.43 187.229 4.325 187.943 4.325C188.705 4.325 189.368 4.427 189.932 4.631C190.502 4.829 190.985 5.075 191.381 5.369L190.715 6.395C190.355 6.149 189.959 5.948 189.527 5.792C189.095 5.63 188.573 5.549 187.961 5.549C187.217 5.549 186.689 5.666 186.377 5.9C186.065 6.128 185.909 6.425 185.909 6.791C185.909 7.067 185.984 7.298 186.134 7.484C186.29 7.664 186.551 7.829 186.917 7.979C187.283 8.123 187.787 8.282 188.429 8.456C189.047 8.618 189.584 8.813 190.04 9.041C190.502 9.269 190.862 9.569 191.12 9.941C191.378 10.313 191.507 10.793 191.507 11.381C191.507 12.053 191.315 12.599 190.931 13.019C190.547 13.433 190.049 13.736 189.437 13.928C188.831 14.114 188.189 14.207 187.511 14.207C186.653 14.207 185.921 14.084 185.315 13.838C184.715 13.586 184.211 13.283 183.803 12.929L184.667 11.93C185.039 12.236 185.465 12.485 185.945 12.677C186.431 12.863 186.953 12.956 187.511 12.956ZM202.966 4.523L199.636 14.063C199.414 14.705 199.132 15.293 198.79 15.827C198.454 16.361 198.013 16.802 197.467 17.15C196.927 17.504 196.24 17.723 195.406 17.807L195.172 16.601C195.826 16.493 196.342 16.328 196.72 16.106C197.098 15.884 197.395 15.599 197.611 15.251C197.833 14.903 198.028 14.486 198.196 14H197.692L194.38 4.523H196L198.718 12.848L201.4 4.523H202.966ZM209.097 12.956C209.823 12.956 210.396 12.821 210.816 12.551C211.242 12.275 211.455 11.909 211.455 11.453C211.455 11.165 211.401 10.916 211.293 10.706C211.191 10.496 210.978 10.307 210.654 10.139C210.33 9.971 209.832 9.803 209.16 9.635C208.506 9.473 207.936 9.287 207.45 9.077C206.97 8.861 206.595 8.582 206.325 8.24C206.061 7.898 205.929 7.454 205.929 6.908C205.929 6.374 206.079 5.915 206.379 5.531C206.685 5.141 207.108 4.844 207.648 4.64C208.188 4.43 208.815 4.325 209.529 4.325C210.291 4.325 210.954 4.427 211.518 4.631C212.088 4.829 212.571 5.075 212.967 5.369L212.301 6.395C211.941 6.149 211.545 5.948 211.113 5.792C210.681 5.63 210.159 5.549 209.547 5.549C208.803 5.549 208.275 5.666 207.963 5.9C207.651 6.128 207.495 6.425 207.495 6.791C207.495 7.067 207.57 7.298 207.72 7.484C207.876 7.664 208.137 7.829 208.503 7.979C208.869 8.123 209.373 8.282 210.015 8.456C210.633 8.618 211.17 8.813 211.626 9.041C212.088 9.269 212.448 9.569 212.706 9.941C212.964 10.313 213.093 10.793 213.093 11.381C213.093 12.053 212.901 12.599 212.517 13.019C212.133 13.433 211.635 13.736 211.023 13.928C210.417 14.114 209.775 14.207 209.097 14.207C208.239 14.207 207.507 14.084 206.901 13.838C206.301 13.586 205.797 13.283 205.389 12.929L206.253 11.93C206.625 12.236 207.051 12.485 207.531 12.677C208.017 12.863 208.539 12.956 209.097 12.956Z" fill="#49B7F5"/>
<path d="M66.9888 53.387L66.7008 48.707H68.5998L68.3208 53.387H66.9888ZM69.9948 53.387L69.7248 48.707H71.6148L71.3268 53.387H69.9948ZM82.2908 62V56.123H77.6108V62H76.0538V49.607H77.6108V54.845H82.2908V49.607H83.8478V62H82.2908ZM88.3408 57.797C88.3708 58.529 88.5118 59.129 88.7638 59.597C89.0158 60.059 89.3488 60.401 89.7628 60.623C90.1768 60.839 90.6268 60.947 91.1128 60.947C91.5988 60.947 92.0368 60.875 92.4268 60.731C92.8228 60.587 93.2278 60.374 93.6418 60.092L94.3528 61.091C93.9088 61.439 93.4018 61.712 92.8318 61.91C92.2678 62.108 91.6888 62.207 91.0948 62.207C90.1768 62.207 89.3938 62 88.7458 61.586C88.0978 61.172 87.6028 60.596 87.2608 59.858C86.9248 59.114 86.7568 58.253 86.7568 57.275C86.7568 56.315 86.9278 55.463 87.2698 54.719C87.6118 53.975 88.0918 53.39 88.7098 52.964C89.3278 52.538 90.0568 52.325 90.8968 52.325C91.6948 52.325 92.3818 52.514 92.9578 52.892C93.5338 53.264 93.9748 53.798 94.2808 54.494C94.5928 55.184 94.7488 56.009 94.7488 56.969C94.7488 57.131 94.7458 57.284 94.7398 57.428C94.7338 57.566 94.7248 57.689 94.7128 57.797H88.3408ZM90.9148 53.567C90.2128 53.567 89.6248 53.816 89.1508 54.314C88.6828 54.812 88.4158 55.583 88.3498 56.627H93.2908C93.2728 55.613 93.0508 54.851 92.6248 54.341C92.1988 53.825 91.6288 53.567 90.9148 53.567ZM101.636 48.707V59.66C101.636 60.128 101.78 60.461 102.068 60.659C102.362 60.851 102.74 60.947 103.202 60.947C103.49 60.947 103.763 60.917 104.021 60.857C104.279 60.797 104.537 60.716 104.795 60.614L105.2 61.721C104.942 61.847 104.621 61.958 104.237 62.054C103.859 62.156 103.43 62.207 102.95 62.207C102.11 62.207 101.429 61.976 100.907 61.514C100.385 61.046 100.124 60.401 100.124 59.579V49.904H97.2167V48.707H101.636ZM112.429 48.707V59.66C112.429 60.128 112.573 60.461 112.861 60.659C113.155 60.851 113.533 60.947 113.995 60.947C114.283 60.947 114.556 60.917 114.814 60.857C115.072 60.797 115.33 60.716 115.588 60.614L115.993 61.721C115.735 61.847 115.414 61.958 115.03 62.054C114.652 62.156 114.223 62.207 113.743 62.207C112.903 62.207 112.222 61.976 111.7 61.514C111.178 61.046 110.917 60.401 110.917 59.579V49.904H108.01V48.707H112.429ZM123.141 52.325C124.035 52.325 124.782 52.529 125.382 52.937C125.988 53.339 126.441 53.909 126.741 54.647C127.047 55.385 127.2 56.255 127.2 57.257C127.2 58.223 127.044 59.078 126.732 59.822C126.42 60.566 125.961 61.151 125.355 61.577C124.755 61.997 124.011 62.207 123.123 62.207C122.235 62.207 121.488 62.003 120.882 61.595C120.276 61.187 119.817 60.614 119.505 59.876C119.199 59.132 119.046 58.265 119.046 57.275C119.046 56.297 119.202 55.436 119.514 54.692C119.826 53.948 120.285 53.369 120.891 52.955C121.503 52.535 122.253 52.325 123.141 52.325ZM123.141 53.558C122.325 53.558 121.707 53.861 121.287 54.467C120.873 55.067 120.666 56.003 120.666 57.275C120.666 58.523 120.87 59.45 121.278 60.056C121.692 60.662 122.307 60.965 123.123 60.965C123.939 60.965 124.551 60.662 124.959 60.056C125.373 59.45 125.58 58.517 125.58 57.257C125.58 55.997 125.376 55.067 124.968 54.467C124.56 53.861 123.951 53.558 123.141 53.558ZM150.028 49.607L148.138 62H146.086L144.664 52.649L143.233 62H141.136L139.39 49.607H140.956L142.279 60.281L143.764 51.047H145.681L147.094 60.281L148.579 49.607H150.028ZM155.52 52.325C156.414 52.325 157.161 52.529 157.761 52.937C158.367 53.339 158.82 53.909 159.12 54.647C159.426 55.385 159.579 56.255 159.579 57.257C159.579 58.223 159.423 59.078 159.111 59.822C158.799 60.566 158.34 61.151 157.734 61.577C157.134 61.997 156.39 62.207 155.502 62.207C154.614 62.207 153.867 62.003 153.261 61.595C152.655 61.187 152.196 60.614 151.884 59.876C151.578 59.132 151.425 58.265 151.425 57.275C151.425 56.297 151.581 55.436 151.893 54.692C152.205 53.948 152.664 53.369 153.27 52.955C153.882 52.535 154.632 52.325 155.52 52.325ZM155.52 53.558C154.704 53.558 154.086 53.861 153.666 54.467C153.252 55.067 153.045 56.003 153.045 57.275C153.045 58.523 153.249 59.45 153.657 60.056C154.071 60.662 154.686 60.965 155.502 60.965C156.318 60.965 156.93 60.662 157.338 60.056C157.752 59.45 157.959 58.517 157.959 57.257C157.959 55.997 157.755 55.067 157.347 54.467C156.939 53.861 156.33 53.558 155.52 53.558ZM162.794 62V60.839H164.27V53.684H162.794V52.523H165.422L165.701 54.764C166.067 53.984 166.511 53.381 167.033 52.955C167.555 52.529 168.245 52.316 169.103 52.316C169.367 52.316 169.601 52.337 169.805 52.379C170.015 52.415 170.228 52.463 170.444 52.523L170.003 53.873C169.805 53.819 169.625 53.78 169.463 53.756C169.301 53.726 169.115 53.711 168.905 53.711C168.179 53.711 167.555 53.969 167.033 54.485C166.511 55.001 166.094 55.781 165.782 56.825V60.839H167.708V62H162.794ZM168.986 55.727V53.666L169.139 52.523H170.444L170.228 55.727H168.986ZM177.187 48.707V59.66C177.187 60.128 177.331 60.461 177.619 60.659C177.913 60.851 178.291 60.947 178.753 60.947C179.041 60.947 179.314 60.917 179.572 60.857C179.83 60.797 180.088 60.716 180.346 60.614L180.751 61.721C180.493 61.847 180.172 61.958 179.788 62.054C179.41 62.156 178.981 62.207 178.501 62.207C177.661 62.207 176.98 61.976 176.458 61.514C175.936 61.046 175.675 60.401 175.675 59.579V49.904H172.768V48.707H177.187ZM189.959 48.518L191.471 48.707V62H190.148L190.004 60.749C189.65 61.253 189.242 61.622 188.78 61.856C188.324 62.09 187.835 62.207 187.313 62.207C186.491 62.207 185.813 62 185.279 61.586C184.745 61.172 184.349 60.596 184.091 59.858C183.833 59.114 183.704 58.253 183.704 57.275C183.704 56.327 183.851 55.481 184.145 54.737C184.439 53.987 184.862 53.399 185.414 52.973C185.972 52.541 186.641 52.325 187.421 52.325C187.967 52.325 188.447 52.421 188.861 52.613C189.275 52.799 189.641 53.075 189.959 53.441V48.518ZM187.817 53.54C187.025 53.54 186.416 53.849 185.99 54.467C185.564 55.085 185.351 56.021 185.351 57.275C185.351 58.091 185.438 58.775 185.612 59.327C185.786 59.879 186.041 60.293 186.377 60.569C186.719 60.845 187.136 60.983 187.628 60.983C188.168 60.983 188.627 60.83 189.005 60.524C189.389 60.218 189.707 59.873 189.959 59.489V54.755C189.701 54.371 189.389 54.074 189.023 53.864C188.657 53.648 188.255 53.54 187.817 53.54ZM199.474 49.607L199.321 57.914H197.962L197.782 49.607H199.474ZM198.655 59.795C199.003 59.795 199.291 59.912 199.519 60.146C199.753 60.38 199.87 60.662 199.87 60.992C199.87 61.328 199.753 61.616 199.519 61.856C199.291 62.09 199.003 62.207 198.655 62.207C198.313 62.207 198.028 62.09 197.8 61.856C197.572 61.616 197.458 61.328 197.458 60.992C197.458 60.662 197.572 60.38 197.8 60.146C198.028 59.912 198.313 59.795 198.655 59.795ZM207.297 53.387L207.009 48.707H208.908L208.629 53.387H207.297ZM210.303 53.387L210.033 48.707H211.923L211.635 53.387H210.303Z" fill="#7BBEE3"/>
</svg>
